<?xml version="1.0" encoding="utf-8"?>
<!-- Generator: Adobe Illustrator 26.2.1, SVG Export Plug-In . SVG Version: 6.00 Build 0)  -->
<svg version="1.1" id="Layer_1" xmlns="http://www.w3.org/2000/svg" xmlns:xlink="http://www.w3.org/1999/xlink" x="0px" y="0px"
	 width="240px" height="250px" viewBox="0 0 240 250" style="enable-background:new 0 0 240 250;" xml:space="preserve">
<style type="text/css">
	.st0{fill:#CBCAE3;}
	.st1{fill:#D7CFB4;}
	.st2{fill:#C9D7C9;}
	.st3{fill:#FFFFFF;}
</style>
<g>
	<path class="st0" d="M206.2,96.3C191.7,83,168.3,77.7,152.3,89c-3.9,2.8-7.2,6.4-10.4,10c-7.6,8.4-15.2,16.9-22.9,25.3
		c-4.1,4.5-8.4,9.4-9.2,15.5c-0.7,4.9,1.1,9.8,3.8,13.9c6.9,10.4,18.9,15.2,30.1,19.5c6.3,2.5,12.6,5.1,18.6,8.3
		c8.1,4.3,16.3,10.9,26,11.7c10.4,0.9,20.5-4.8,27.3-12.3c10-11,20.2-28.5,15.1-43C225.4,122.6,218.3,107.3,206.2,96.3z"/>
	<path class="st1" d="M64.1,91.2c-14.2-5.9-32.6-2.5-40.6,11.9c-2,3.5-3.2,7.5-4.5,11.4c-2.9,9.3-5.9,18.5-8.8,27.8
		c-1.6,5-3.2,10.3-1.9,15.4c1,4.1,3.7,7.5,6.9,9.9c12.6,9.5,29.4,4,44.4,6.4c5.4,0.9,10.8,2.9,16.2,2.2c9.5-1.1,17-10.1,20.2-20.2
		c3.9-12.1,6-29.5-2-39.5C85.6,106,76,96.1,64.1,91.2z"/>
	<path class="st2" d="M130.5,22.2c-11.8-14-32.8-22-48.9-13.8c-4,2-7.4,4.9-10.8,7.7c-8,6.7-16.1,13.3-24.1,20
		c-4.3,3.6-8.8,7.5-10.3,12.9c-1.2,4.3-0.2,9.1,1.9,13.2c8.1,16.3,28.7,21.4,43.1,32.7c5.2,4.1,9.8,9.1,15.8,11.8
		c10.5,4.8,23.3,1.1,32.1-6.1c10.5-8.7,22.1-23.2,19.1-37.2C145.1,48.7,140.3,33.9,130.5,22.2z"/>
	<g>
		<path class="st3" d="M215.1,221.8c-4.8,1.5-13.4,3.2-17.8-2.2c-3.4-4.1-4.1-11.1-2.1-16.1l2.5,1c3.9,1.6,8.3,3.4,12.7,3.2
			c2.4-0.1,4.3-1.1,4.9-2.8c0.4-1.1,0.4-2.4-0.2-3.8c-1.8-4.5-7.1-6.3-11.4-5.8c-3.1,0.4-5.9,1.8-7.6,3.9c-0.6,0.7-1.1,1.5-1.6,2.4
			l-11.2-4.6c-1.9-0.8-3.8-1.5-5.7-2.2c-9.7-3.5-18-6.6-18.7-18.8l0-0.5c-0.5-9.8-1-9.8-1.7-9.9c-4.6-0.5-8.9-1.1-12.2-3.5
			c1,0,1.9-0.3,2.8-0.6c2-0.8,3.5-2.6,4-4.5c0.5-2.2-0.3-4.3-1.1-5.7c-1-1.7-2.2-3-3.7-3.7c-1.8-0.9-3.8-0.8-5.3,0.2
			c-1.7,1.1-2.7,3.4-2.5,6.1c0.1,2.3,0.9,4.5,2.2,6.3c-3.6-1.5-6.1-5.2-6.1-9.1c0-1.1,0.2-2.3,0.5-3.5c0.5-2.4,0.9-4.8-0.1-7.1
			c-1.1-2.4-3.6-4.5-6-6.4c-1.1-0.9-2.1-1.7-3-2.6l-0.2-0.2c-3-3-6.2-6.2-10.3-7.8c-2.7-1.1-5.9-1.1-8.6,0.1
			c-0.2,0.1-0.4,0.2-0.6,0.3c-1,0.5-2,0.9-2.8,0.6c-0.4-0.2-0.8-0.5-1.2-0.9c-0.2-0.2-0.4-0.4-0.7-0.6c-1.5-1.2-3.8-1.5-6-0.9
			c-0.1,0-6.4,1.8-6.6,4.7c-0.1,0.9,0.4,1.6,0.8,2.1l0.1,0.2c-0.1,0-0.1,0.1-0.2,0.1c-0.6,0.5-1.4,1.1-1.8,2
			c-0.6,1.3-0.1,2.7,0.4,3.9c1.8,4.3,4.5,8.6,8.1,12.7c0.5,0.6,1,1.2,1.5,1.8c0.2,0.2,0.4,0.4,0.5,0.7c-3.2,0.9-6.4,0.9-9-0.2
			c-3.6-1.5-5.9-4.8-7.2-7.4c-1.3-2.5-2.1-5.2-3-7.8c-0.3-0.8-0.5-1.6-0.8-2.4c-0.7-2.1-1.3-4.4-1.8-6.6c-0.4-1.6-0.8-3.3-1.3-4.9
			c-1.1-3.6-1.9-7.2-2.7-11.6c-0.8-4.3-1.5-8.4-2.1-12.4c-0.1-0.5-0.2-1.1-0.3-1.6c-0.6-3.6-1.2-7.3-0.5-10.9
			c0.6-3.4,2.1-6.5,4.2-8.7c3.4,5.3,9.8,8.6,15.6,9.6c2.5,0.4,4.1-0.1,4.7-1.6c0-0.1,0.1-0.2,0.2-0.3c0.3-0.2,0.9-0.3,1.5-0.4
			c1.2-0.2,2.9-0.5,3-2.2c0-1.1-0.7-1.8-1.3-2.4c-0.1-0.1-0.2-0.2-0.3-0.3c-3-3.1-6.2-5.3-9.6-6.6c-2.7-1-5.1-1.3-7.2-1
			c-1.8,0.3-3.7,1.2-5.8,2.7c-0.2,0.1-0.4,0.3-0.5,0.4c-0.6-1.2-1-2.6-1.3-4c0,0-0.7-2.7,1-4.9c0.2-0.3,0.2-0.7-0.1-0.9
			c-0.3-0.2-0.7-0.2-0.9,0.1c-2.1,2.7-1.3,5.9-1.3,5.9c0.3,1.7,0.8,3.2,1.5,4.6c-2.5,2.5-4.1,5.8-4.8,9.7c-0.7,3.8-0.1,7.7,0.5,11.4
			c0.1,0.5,0.2,1.1,0.3,1.6c0.6,4,1.3,8.1,2.1,12.4c0.8,4.5,1.6,8.1,2.7,11.8c0.5,1.6,0.9,3.2,1.3,4.8c0.6,2.2,1.1,4.5,1.9,6.7
			c0.3,0.8,0.5,1.6,0.8,2.4c0.9,2.7,1.7,5.4,3.1,8c1.4,2.7,3.9,6.3,7.8,8c3,1.3,6.7,1.3,10.4,0.1c1.6,1.8,3.3,3.6,5.3,5
			c1.6,1.1,4,1.3,5.8,0.5c1.5-0.6,2.5-1.7,2.8-3.1c0.5-2-0.9-4-2.4-5.1c-1.6-1.3-3.7-1.6-6-0.9c-1.2,0.3-2.3,0.9-3.4,1.4l-0.5,0.2
			c-0.4,0.2-0.9,0.4-1.3,0.5c-0.3-0.3-0.6-0.7-0.9-1c-0.5-0.6-1-1.2-1.5-1.9c-3.5-4.1-6.1-8.2-7.9-12.4c-0.4-1-0.8-2.1-0.4-2.9
			c0.3-0.6,0.9-1.1,1.4-1.5c0,0,0.1-0.1,0.1-0.1c2.9,4.1,6.7,9.4,11.8,10.1c2.6,0.3,5.1-0.7,6.9-1.7c2.1-1.1,4.1-2,6.2-3l1.4-0.6
			c0.9-0.4,2.2-1,2.7-2.1c0.2-0.4,0.1-0.9-0.1-1.3c-0.9-1.4-4.7-1.7-5.1-1.6c-0.9,0-1.8,0.2-2.7,0.4c-0.4,0.1-0.8,0.2-1.2,0.2
			c-3.3,0.6-6.8,0-9.7-1.7c-0.3-0.2-0.7-0.4-1-0.6c-1.3-0.8-2.6-1.6-4.2-1.7c-1.7-0.1-3.2,0.7-4.7,1.7l-0.1-0.2
			c-0.3-0.4-0.6-0.8-0.5-1.2c0.1-1.3,3.4-3,5.7-3.6c1.9-0.5,3.7-0.3,4.9,0.7c0.2,0.2,0.4,0.3,0.6,0.5c0.4,0.4,0.9,0.9,1.6,1.1
			c1.4,0.5,2.7-0.1,3.8-0.7c0.2-0.1,0.4-0.2,0.6-0.3c2.4-1,5.2-1.1,7.6-0.1c3.9,1.6,6.9,4.6,9.8,7.5l0.2,0.2
			c0.9,0.9,1.9,1.7,3.1,2.6c2.3,1.9,4.7,3.8,5.6,5.9c0.9,1.9,0.5,4.1,0,6.3c-0.2,1.2-0.5,2.5-0.5,3.7c0,4.8,3.4,9.3,8,10.6
			c0.3,0.1,0.6,0.2,0.9,0.2c3.6,3.5,8.6,4.3,14,4.9c0.2,0.5,0.5,2.4,0.8,8.7l0,0.5c0.7,13,9.9,16.4,19.5,19.9
			c1.8,0.7,3.8,1.4,5.6,2.2l11.2,4.6c-2.2,5.5-1.4,12.9,2.3,17.4c2.6,3.2,6.4,4.2,10.2,4.2c3.4,0,6.7-0.8,9.1-1.5
			c0.3-0.1,0.5-0.5,0.4-0.8C215.8,221.9,215.5,221.7,215.1,221.8z M197.1,200.2c1.6-1.9,4-3.1,6.8-3.5c3.7-0.5,8.5,1.1,10,5
			c0.3,0.6,0.6,1.8,0.2,2.8c-0.6,1.4-2.3,1.9-3.8,2c-4.1,0.2-8.2-1.5-12.1-3.2l-2.5-1C196.1,201.5,196.5,200.8,197.1,200.2z
			 M76.4,74.7c1.9-1.4,3.6-2.3,5.2-2.5c1.9-0.3,4,0,6.5,1c3.2,1.2,6.3,3.3,9.1,6.3c0.1,0.1,0.2,0.2,0.3,0.3c0.4,0.4,0.9,0.9,0.9,1.4
			c0,0.6-0.5,0.8-1.9,1c-0.8,0.1-1.5,0.3-2.1,0.7c-0.3,0.3-0.5,0.5-0.7,0.9c-0.1,0.3-0.5,1.3-3.2,0.8c-5.5-0.9-11.7-4.1-14.9-9.2
			C75.9,75,76.1,74.8,76.4,74.7z M102.3,150.8l0.5-0.2c1-0.5,2.1-1,3.2-1.3c1.9-0.6,3.5-0.3,4.8,0.7c1.1,0.9,2.3,2.4,1.9,3.8
			c-0.3,1.3-1.3,1.9-2,2.2c-1.5,0.6-3.4,0.4-4.7-0.4c-1.8-1.2-3.3-2.7-4.7-4.3C101.7,151.1,102,150.9,102.3,150.8z M96.3,128.1
			c1.3,0.1,2.4,0.8,3.6,1.5c0.3,0.2,0.7,0.4,1,0.6c3.2,1.8,7,2.5,10.6,1.8c0.4-0.1,0.8-0.2,1.2-0.3c0.8-0.2,1.6-0.4,2.4-0.4
			c1.1,0,3.8,0.6,4,1.1c-0.3,0.6-1.3,1.1-2,1.4l-1.4,0.6c-2.1,0.9-4.2,1.9-6.3,3c-1.7,0.9-3.9,1.9-6.2,1.6c-4.5-0.6-8.2-5.7-11-9.6
			C93.6,128.7,94.9,128.1,96.3,128.1z M143.4,160.9c-1.8-1.9-2.9-4.4-3-6.9c-0.1-2.2,0.6-4.1,1.9-4.9c1.1-0.7,2.7-0.7,4.1-0.1
			c1.5,0.7,2.5,2.1,3.1,3.2c0.9,1.7,1.3,3.3,0.9,4.7c-0.4,1.5-1.6,2.9-3.2,3.6C146.2,161,144.8,161.1,143.4,160.9z"/>
		<path class="st3" d="M28.3,243.8h-4.8v-9c0-0.2-0.2-0.4-0.4-0.4h-0.1c-0.2,0-0.4,0.2-0.4,0.4v9.6c0,0.2,0.2,0.4,0.4,0.4h5.4
			c0.2,0,0.4-0.2,0.4-0.4v-0.1C28.7,244,28.5,243.8,28.3,243.8z"/>
		<path class="st3" d="M37.7,234.5c-0.1-0.2-0.2-0.3-0.4-0.3h-0.2c-0.2,0-0.3,0.1-0.4,0.3l-3.7,9.7c0,0.1,0,0.3,0,0.4
			c0.1,0.1,0.2,0.2,0.4,0.2h0.2c0.2,0,0.3-0.1,0.4-0.3l1-2.7h4.3l1,2.7c0.1,0.2,0.2,0.3,0.4,0.3h0.2c0.1,0,0.3-0.1,0.3-0.2
			s0.1-0.3,0.1-0.4L37.7,234.5z M38.9,240.8h-3.6l1.8-4.8L38.9,240.8z"/>
		<path class="st3" d="M53.4,234.3h-0.1c-0.2,0-0.4,0.2-0.4,0.4v8l-5.6-8.2c-0.1-0.1-0.2-0.2-0.4-0.2h-0.1c-0.2,0-0.4,0.2-0.4,0.4
			v9.6c0,0.2,0.2,0.4,0.4,0.4h0.1c0.2,0,0.4-0.2,0.4-0.4v-8l5.6,8.2c0.1,0.1,0.2,0.2,0.4,0.2h0.1c0.2,0,0.4-0.2,0.4-0.4v-9.6
			C53.8,234.5,53.6,234.3,53.4,234.3z"/>
		<path class="st3" d="M66.7,239.4h-0.1c-0.2,0-0.4,0.2-0.4,0.4v3.7c-0.9,0.3-1.6,0.4-2.5,0.4c-2.1,0-3.2-1.5-3.2-4.4
			c0-2.9,1.1-4.4,3.2-4.4c0.9,0,1.8,0.2,2.9,0.5c0.1,0,0.2,0,0.3,0c0.1-0.1,0.2-0.2,0.2-0.3l0-0.1c0-0.2-0.1-0.4-0.3-0.5
			c-1-0.4-2.2-0.6-3.2-0.6c-2.7,0-4.2,1.9-4.2,5.4c0,3.5,1.4,5.4,4.2,5.4c1,0,2.2-0.2,3.2-0.6c0.2-0.1,0.3-0.2,0.3-0.4v-4.1
			C67.1,239.6,66.9,239.4,66.7,239.4z"/>
		<path class="st3" d="M79.8,234.3h-0.1c-0.2,0-0.4,0.2-0.4,0.4v6.2c0,1.5-0.3,3-2.7,3c-2.4,0-2.7-1.5-2.7-3v-6.2
			c0-0.2-0.2-0.4-0.4-0.4h-0.1c-0.2,0-0.4,0.2-0.4,0.4v6.2c0,2.6,1.3,4,3.7,4c2.4,0,3.7-1.3,3.7-4v-6.2
			C80.2,234.5,80,234.3,79.8,234.3z"/>
		<path class="st3" d="M89.6,234.5c-0.1-0.2-0.2-0.3-0.4-0.3H89c-0.2,0-0.3,0.1-0.4,0.3l-3.7,9.7c-0.1,0.1,0,0.3,0,0.4
			c0.1,0.1,0.2,0.2,0.4,0.2h0.2c0.2,0,0.3-0.1,0.4-0.3l1-2.7h4.3l1,2.7c0.1,0.2,0.2,0.3,0.4,0.3h0.2c0.1,0,0.3-0.1,0.3-0.2
			c0.1-0.1,0.1-0.3,0.1-0.4L89.6,234.5z M90.9,240.8h-3.6l1.8-4.8L90.9,240.8z"/>
		<path class="st3" d="M104.6,239.4h-0.1c-0.2,0-0.4,0.2-0.4,0.4v3.7c-0.9,0.3-1.6,0.4-2.5,0.4c-2.1,0-3.2-1.5-3.2-4.4
			c0-2.9,1.1-4.4,3.2-4.4c0.9,0,1.8,0.2,2.9,0.5c0.1,0,0.2,0,0.3,0c0.1-0.1,0.2-0.2,0.2-0.3l0-0.1c0-0.2-0.1-0.4-0.3-0.5
			c-1-0.4-2.2-0.6-3.2-0.6c-2.7,0-4.2,1.9-4.2,5.4c0,3.5,1.4,5.4,4.2,5.4c1,0,2.2-0.2,3.2-0.6c0.2-0.1,0.3-0.2,0.3-0.4v-4.1
			C105,239.6,104.9,239.4,104.6,239.4z"/>
		<path class="st3" d="M116.8,243.8h-4.9v-3.9h4.2c0.2,0,0.4-0.2,0.4-0.4v-0.1c0-0.2-0.2-0.4-0.4-0.4h-4.2v-3.5h4.9
			c0.2,0,0.4-0.2,0.4-0.4v-0.1c0-0.2-0.2-0.4-0.4-0.4h-5.4c-0.2,0-0.4,0.2-0.4,0.4v9.6c0,0.2,0.2,0.4,0.4,0.4h5.5
			c0.2,0,0.4-0.2,0.4-0.4v-0.1C117.2,244,117.1,243.8,116.8,243.8z"/>
		<path class="st3" d="M133.1,238.9c-1.4-0.5-2.6-0.8-2.6-2c0-1.2,0.8-1.7,2.4-1.7c0.8,0,1.5,0.1,2.8,0.4c0.2,0,0.4-0.1,0.5-0.3
			l0-0.1c0-0.1,0-0.2,0-0.3c-0.1-0.1-0.1-0.2-0.3-0.2c-1-0.3-2.1-0.4-3.1-0.4c-2.2,0-3.4,1-3.4,2.7c0,1.9,1.8,2.5,3.3,3
			c1.4,0.5,2.6,0.8,2.6,2.1c0,1-0.7,2-2.5,2c-0.8,0-1.6-0.1-3-0.4c-0.2-0.1-0.4,0.1-0.5,0.3l0,0.1c0,0.1,0,0.2,0,0.3
			c0.1,0.1,0.1,0.2,0.3,0.2c1,0.3,2.2,0.4,3.2,0.4c2.1,0,3.5-1.2,3.5-3C136.4,239.9,134.6,239.3,133.1,238.9z"/>
		<path class="st3" d="M147.7,243.8h-4.9v-3.9h4.2c0.2,0,0.4-0.2,0.4-0.4v-0.1c0-0.2-0.2-0.4-0.4-0.4h-4.2v-3.5h4.9
			c0.2,0,0.4-0.2,0.4-0.4v-0.1c0-0.2-0.2-0.4-0.4-0.4h-5.4c-0.2,0-0.4,0.2-0.4,0.4v9.6c0,0.2,0.2,0.4,0.4,0.4h5.5
			c0.2,0,0.4-0.2,0.4-0.4v-0.1C148.1,244,148,243.8,147.7,243.8z"/>
		<path class="st3" d="M158.4,240.3c1.4-0.3,2.3-1.4,2.3-3c0-1.5-0.9-3-3-3H154c-0.2,0-0.4,0.2-0.4,0.4v9.6c0,0.2,0.2,0.4,0.4,0.4
			h0.1c0.2,0,0.4-0.2,0.4-0.4v-3.9h2.7l2.7,4.2c0.1,0.1,0.2,0.2,0.4,0.2h0.2c0.2,0,0.3-0.1,0.4-0.2c0.1-0.1,0.1-0.3,0-0.4
			L158.4,240.3z M159.6,237.4c0,1.3-0.7,2-2,2h-3.1v-4.1h3.1C159,235.3,159.6,236.4,159.6,237.4z"/>
		<path class="st3" d="M172.9,234.3h-0.2c-0.2,0-0.3,0.1-0.4,0.3l-3.2,8.5l-3.1-8.5c-0.1-0.2-0.2-0.3-0.4-0.3h-0.2
			c-0.1,0-0.3,0.1-0.3,0.2c-0.1,0.1-0.1,0.3-0.1,0.4l3.6,9.7c0.1,0.2,0.2,0.3,0.4,0.3h0.2c0.2,0,0.3-0.1,0.4-0.3l3.7-9.7
			c0-0.1,0-0.3,0-0.4C173.2,234.4,173,234.3,172.9,234.3z"/>
		<path class="st3" d="M178.8,234.3h-0.1c-0.2,0-0.4,0.2-0.4,0.4v9.6c0,0.2,0.2,0.4,0.4,0.4h0.1c0.2,0,0.4-0.2,0.4-0.4v-9.6
			C179.3,234.5,179.1,234.3,178.8,234.3z"/>
		<path class="st3" d="M189.1,235.2c0.9,0,1.8,0.2,2.9,0.5c0.1,0,0.2,0,0.3,0c0.1-0.1,0.2-0.2,0.2-0.3l0-0.1c0-0.2-0.1-0.4-0.3-0.5
			c-1-0.4-2.2-0.6-3.2-0.6c-2.7,0-4.2,1.9-4.2,5.4c0,3.5,1.4,5.4,4.2,5.4c1,0,2.2-0.2,3.2-0.6c0.2-0.1,0.3-0.3,0.3-0.5l0-0.1
			c0-0.1-0.1-0.2-0.2-0.3c-0.1-0.1-0.2-0.1-0.4,0c-1.1,0.4-2,0.5-2.9,0.5c-2.1,0-3.2-1.5-3.2-4.4C185.9,236.7,187,235.2,189.1,235.2
			z"/>
		<path class="st3" d="M203.7,243.8h-4.9v-3.9h4.2c0.2,0,0.4-0.2,0.4-0.4v-0.1c0-0.2-0.2-0.4-0.4-0.4h-4.2v-3.5h4.9
			c0.2,0,0.4-0.2,0.4-0.4v-0.1c0-0.2-0.2-0.4-0.4-0.4h-5.4c-0.2,0-0.4,0.2-0.4,0.4v9.6c0,0.2,0.2,0.4,0.4,0.4h5.5
			c0.2,0,0.4-0.2,0.4-0.4v-0.1C204.1,244,203.9,243.8,203.7,243.8z"/>
		<path class="st3" d="M212.5,238.9c-1.4-0.5-2.6-0.8-2.6-2c0-1.2,0.8-1.7,2.4-1.7c0.8,0,1.5,0.1,2.8,0.4c0.2,0,0.4-0.1,0.5-0.3
			l0-0.1c0-0.1,0-0.2,0-0.3c-0.1-0.1-0.1-0.2-0.3-0.2c-1-0.3-2.1-0.4-3.1-0.4c-2.2,0-3.4,1-3.4,2.7c0,1.9,1.8,2.5,3.3,3
			c1.4,0.5,2.6,0.8,2.6,2.1c0,1-0.7,2-2.5,2c-0.8,0-1.6-0.1-3-0.4c-0.2-0.1-0.4,0.1-0.5,0.3l0,0.1c0,0.1,0,0.2,0,0.3
			c0.1,0.1,0.1,0.2,0.3,0.2c1,0.3,2.2,0.4,3.2,0.4c2.1,0,3.5-1.2,3.5-3C215.8,239.9,213.9,239.3,212.5,238.9z"/>
		<path class="st3" d="M35.1,195.9c-3.7,0-7.5,1.6-11.2,4.6v-13.6c0-0.2-0.2-0.4-0.4-0.4H23c-0.2,0-0.4,0.2-0.4,0.4v37.5
			c0,0.2,0.2,0.4,0.4,0.4h0.6c0.2,0,0.4-0.2,0.4-0.4v-22.2c2.7-2.3,6.8-5,11.2-5c4.9,0,7.3,2.6,7.3,7.9v19.3c0,0.2,0.2,0.4,0.4,0.4
			h0.6c0.2,0,0.4-0.2,0.4-0.4v-19.3C43.7,198.9,40.9,195.9,35.1,195.9z"/>
		<path class="st3" d="M78.5,211.2v-24.3c0-0.2-0.2-0.4-0.4-0.4h-0.6c-0.2,0-0.4,0.2-0.4,0.4v24.3c0,5.5-1.2,12.9-11.8,12.9
			s-11.8-7.3-11.8-12.9v-24.3c0,0,0,0,0,0v-8.5c0-0.2-0.1-0.4-0.2-0.5c-0.2-0.1-0.4-0.2-0.5-0.1c-2.2,0.5-4.5,1.2-6.6,1.9
			c-1.2,0.4-2.3,0.7-3.5,1c-0.6,0.2-1.1,0.3-1.7,0.5c-2.5,0.7-5,1.5-7.7,1.4c-3.2-0.2-7.1-2-8.1-5.6c-0.4-1.3-0.3-2.8-0.3-4.2
			c0.1-2.1,0.2-4.2-1-6.1c-0.4-0.6-0.9-1.2-1.5-1.7c-0.9-0.9-1.7-1.7-1.8-2.7c-0.1-1.8,3-3,4.9-3.4c0.2,0,0.5-0.1,0.7-0.1
			c0.3-0.1,0.5-0.4,0.5-0.8c-0.1-0.3-0.4-0.6-0.7-0.5c-0.2,0-0.4,0.1-0.6,0.1c-1.7,0.2-3.9-0.6-5.1-1.9c-1.7-1.9,0.5-4.6,1.9-6.1
			c0.3-0.3,0.7-0.6,1-1c0.4-0.4,0.8-0.7,1.1-1.1c0.2-0.2,0.2-0.5,0.3-1.9c0-0.5,0.1-0.9,0.1-1.3c1.4,0.3,2.8,0.3,3.4-0.4
			c0.9-1,0-2.7-0.3-3.2c-0.6-1-1.4-2.2-2.5-2c-1,0.2-1.5,1.6-1.7,4c-0.5-0.2-1.1-0.4-1.7-0.6c-1.9-0.8-2.4-3.1-2-5
			c0.9-4.6,4.3-8,7.6-11.3c0.8-0.8,1.6-1.6,2.4-2.5c5.3-5.7,5.3-10.2,5.3-16.5c0-1,0-2,0-3.1c0.2-7,4.4-13.1,9-19.1
			c2.6-3.4,5.7-6.3,9.7-9.2C54.2,81.1,53,87,51.8,92.8c-0.3,1.7-0.7,3.3-1,4.9c-1.6,8.4-3.1,17-4.4,25.4
			c-1.8,11.2-2.1,22.5-2.2,32.1c0,0.3,0.3,0.6,0.6,0.6c0.3,0,0.6-0.2,0.7-0.6c0.1-0.5,7.1-49.2,15.1-61.1c0.2,0,0.5,0.1,0.6,0.1
			c0.2,0,0.3,0.1,0.3,0.1c0.6,0.1,1.5,0.1,2.1-0.8C64,93,64,92.3,64,91.9c0-2.2-0.7-4.1-1.4-6c-0.2-0.5-0.4-1.1-0.6-1.7
			c-1-2.9-2-5.6-3.1-8.2c-0.7-1.5-1.3-3-2-4.3c4.8-0.4,8-2.8,8.6-6.7c0.4-2.4,0.3-4.9,0.2-7.3c-0.1-2-0.2-4,0-5.9
			c0.4-4.3,1.3-8.6,2.6-12.8c4.3-13.3,13.8-22.9,25.2-25.7c8-1.9,16.3-0.4,22.2,4c3.8,2.9,7,7.2,9.4,12.8c0.4,1,0.5,1.7,0.2,2.1
			c-0.3,0.3-1,0.3-1.6,0.3l-0.5,0c-8.1-0.4-16.5-0.8-24.3,1.9c-6.7,2.3-14.3,7.1-15.7,13.9c-0.9,4.3,0.6,9,3.8,11.9
			c2.2,2.1,5.1,3.2,7.8,4.3c1.6,0.7,3.3,1.4,4.9,2.2c4.7,2.7,7.7,7.2,8.4,12.6c0.6,4.7-0.2,10.1-2.5,15.9l-0.2,0.5
			c-0.5,1.3-1,2.6-1.7,3.8l-0.4,0.7c-1,1.7-2,3.4-2.7,5.3c-0.5,1.2-0.7,2.3-0.7,3.2c-0.1,1.3,0.2,2.4,0.8,3.4c0.9,1.5,2.4,2,3.8,2.5
			c0.4,0.1,0.7,0.3,1.1,0.4c0.5,0.2,1,0.5,1.5,0.7c1.5,0.7,3,1.4,4.7,1.7c1.3,0.3,5.9,1.1,8.6-1.4c0.5-0.4,0.7-1,0.6-1.6
			c-0.1-0.6-0.5-1.2-1.1-1.4c-0.5-0.2-1-0.3-1.5-0.3c-3.4-0.1-5.8,1-6.9,3.2c0,0,0,0.1,0,0.1c-1.3-0.4-2.5-0.9-3.8-1.5
			c-0.5-0.2-1-0.5-1.6-0.7c-0.4-0.2-0.8-0.3-1.2-0.4c-1.3-0.5-2.4-0.9-3.1-2c-0.6-0.9-0.7-1.9-0.6-2.6c0-0.8,0.2-1.7,0.7-2.9
			c0.7-1.8,1.6-3.4,2.6-5.2l0.4-0.8c0.7-1.2,1.2-2.6,1.7-3.9l0.2-0.5c2.3-6.1,3.2-11.6,2.6-16.6c-0.8-5.9-4-10.7-9-13.6
			c-1.6-0.9-3.3-1.6-5-2.3c-2.7-1.1-5.3-2.2-7.4-4.1c-2.9-2.7-4.2-6.9-3.5-10.7c1.3-6.2,8.8-10.8,14.8-12.9
			c7.6-2.6,15.8-2.2,23.8-1.8l0.5,0c0.7,0,1.9,0.1,2.6-0.7c0.7-0.8,0.7-1.9,0.1-3.5c-2.5-5.8-5.8-10.3-9.8-13.4
			c-6.2-4.7-14.9-6.3-23.3-4.3C81.3,15,71.6,24.9,67.1,38.7c-1.4,4.2-2.3,8.6-2.7,13.1c-0.2,2-0.1,4.1,0,6.1c0.1,2.3,0.2,4.8-0.2,7
			c-0.7,4.5-5.1,5.4-7.6,5.6c-0.1,0-0.2,0-0.3,0c-2.4-4.7-4.8-8.4-7.5-11.6c-1.5-1.7-3.2-2.8-4.9-3.2c-2.2-0.5-4.5,0.4-5.5,2.1
			c-1.2,1.9-0.6,4.4,0.4,6c3.1,5.4,10.4,8,16.5,8c0.1,0,0.1,0,0.2,0c0.7,1.5,1.5,3.1,2.2,4.8c1.1,2.5,2.1,5.3,3.1,8.1
			c0.2,0.6,0.4,1.1,0.6,1.7c0.7,1.8,1.3,3.6,1.3,5.5c0,0.3,0,0.7-0.2,1c-0.1,0.2-0.2,0.3-0.8,0.2c0,0-0.1,0-0.2,0
			c-0.9-0.2-1.4-0.3-1.7,0.2c-6.1,8.7-11.5,37.2-14,52.3c0.3-7.1,0.8-14.6,2-22.2c1.3-8.4,2.8-17,4.4-25.4c0.3-1.6,0.6-3.2,1-4.9
			c1.3-6.3,2.6-12.7,2.5-18.8c0-0.2-0.1-0.5-0.3-0.6c-0.2-0.1-0.5-0.1-0.7,0c-4.7,3.2-8.1,6.3-11.1,10.2c-4.8,6.2-9.1,12.5-9.3,19.9
			c0,1.1,0,2.1,0,3.1c0,6.2-0.1,10.3-5,15.6c-0.8,0.8-1.6,1.6-2.4,2.4c-3.4,3.4-7,7-8,12c-0.5,2.3,0.2,5.3,2.7,6.4
			c0.5,0.2,1.3,0.5,2.1,0.8c0,0.5-0.1,1-0.1,1.5c0,0.4-0.1,0.9-0.1,1.2c-0.3,0.3-0.7,0.6-1,0.9c-0.4,0.3-0.7,0.7-1.1,1
			c-3.1,3-3.8,5.8-2,7.8c0.8,0.9,2,1.6,3.2,2c-1.7,0.8-3.2,2-3.2,3.8c0.1,1.5,1.2,2.6,2.2,3.6c0.5,0.5,1,1,1.3,1.5
			c0.9,1.5,0.9,3.4,0.8,5.3c-0.1,1.5-0.1,3.1,0.3,4.6c1.2,4.2,5.6,6.3,9.3,6.5c2.8,0.2,5.5-0.7,8.1-1.4c0.5-0.2,1.1-0.3,1.6-0.5
			c1.2-0.3,2.3-0.7,3.5-1c1.9-0.6,3.8-1.1,5.7-1.6v7.6c0,0,0,0,0,0.1v24.3c0,9.5,4.3,14.2,13.1,14.2S78.5,220.7,78.5,211.2z
			 M25.8,140c0,0,0.4,0.1,1.1,1.4c0.6,1.1,0.6,1.6,0.5,1.7c-0.2,0.3-1.1,0.3-2.3,0C25.3,141.2,25.5,140.2,25.8,140z M118.4,114.3
			c0.4,0,0.7,0,1,0.2c0.2,0.1,0.4,0.3,0.4,0.4c0,0.1-0.1,0.3-0.2,0.5c-1.6,1.5-4.4,1.6-6.8,1.2C113.9,114.6,116.5,114.2,118.4,114.3
			z M39.9,63.2c-0.8-1.3-1.3-3.2-0.4-4.7c0.7-1.1,2-1.6,3.2-1.6c0.3,0,0.6,0,0.9,0.1c1.4,0.3,2.8,1.2,4.2,2.8
			c2.5,2.9,4.8,6.4,7.1,10.7C49.3,70.4,42.7,68,39.9,63.2z"/>
		<path class="st3" d="M148.3,186.5c-0.1-0.1-0.2-0.2-0.4-0.2h-0.8c-0.2,0-0.3,0.1-0.4,0.2l-14.5,37.8c0,0.1,0,0.2,0,0.3
			c0.1,0.1,0.2,0.2,0.3,0.2h0.6c0.2,0,0.3-0.1,0.4-0.2l4.4-11.3h18.7l4.2,11.3c0.1,0.1,0.2,0.2,0.4,0.2h0.6c0.1,0,0.2-0.1,0.3-0.2
			c0.1-0.1,0.1-0.2,0-0.3L148.3,186.5z M156.3,211.9h-17.8l9-23.7L156.3,211.9z"/>
		<path class="st3" d="M185.2,224.8h0.5c0.2,0,0.4-0.2,0.4-0.4v-15.9c0-5.1-2.4-7.7-7.2-7.7c-3,0-6,1.2-9.2,3.8l-0.1-3
			c0-0.2-0.2-0.4-0.4-0.4h-0.4c-0.2,0-0.4,0.2-0.4,0.4v22.7c0,0.2,0.2,0.4,0.4,0.4h0.5c0.2,0,0.4-0.2,0.4-0.4v-18.2
			c2.2-1.9,5.5-4.1,9.2-4.1c4,0,6,2.1,6,6.4v15.9C184.8,224.6,185,224.8,185.2,224.8z"/>
		<path class="st3" d="M221.5,177.4c-0.8-0.9-2.1-1-3.2-1.2c-0.9-0.1-1.8-0.2-2.3-0.7c-0.6-0.6-0.6-1.6-0.4-2.4
			c0-0.1,0.1-0.2,0.1-0.2c2.2,0.3,3.9-0.3,5-1.7c1.5-1.9,1.3-5.1-0.4-8.3c-0.6-1.1-1.3-2.1-2-3.2c-1.9-2.9-3.8-5.9-4-9.1
			c-0.1-2.6,0.9-5.3,1.9-7.9c0.5-1.4,1-2.7,1.3-4c1.2-4.6-0.4-9-2.3-13.1c-1.7-3.7-4.1-7-7.1-9.9c-1-1-2-1.9-3-2.7
			c-0.2-0.2-0.5-0.4-0.8-0.6c-0.7-0.5-1.3-0.9-1.7-1.5c-0.6-1-0.1-2,0.6-3.4c0.3-0.6,0.7-1.2,0.8-1.8c0.4-1.3,0.3-2.6-0.3-3.5
			c-0.4-0.6-0.9-1-1.4-1.4c-0.4-0.4-0.8-0.7-1.1-1.1c-0.7-1.2-0.3-2.9,0.3-4.5c0.7-1.8,1.3-3.9,0.3-5.6c-0.6-1.1-1.7-1.7-2.7-2.2
			c-0.9-0.5-1.8-0.9-2.2-1.7c-0.2-0.3-0.3-0.6-0.4-0.9c-0.2-0.6-0.5-1.2-1-1.7c-1-1-2.5-0.9-3.5-0.8l-0.4,0
			c-0.9,0.1-1.7,0.2-2.4-0.1c-0.8-0.4-1.3-1.3-1.9-2.2c-0.5-1-1-1.9-2-2.6c-1.2-0.8-2.5-0.8-3.8-0.8c-1.1,0-2.1,0-2.9-0.5
			c-0.7-0.4-1.2-0.9-1.9-1.5c-0.9-0.9-1.9-1.8-3.2-2.1c-1.9-0.5-3.6,0.3-5.3,1.1c-1.3,0.6-2.5,1.2-3.8,1.2c-1.2,0-2.5-0.6-3.8-1.2
			c-2-0.9-4-1.9-6-0.8c-0.7,0.4-1.2,0.9-1.7,1.5c-0.4,0.4-0.7,0.8-1.1,1.1c-1.4,1-3.2,0.6-5.2,0.2c-1.6-0.3-3.3-0.6-4.9-0.2
			c-1.9,0.5-3.3,1.9-4.7,3.3c-0.4,0.4-0.7,0.7-1.1,1.1c-1.4,1.3-3.1,1.5-4.9,1.8c-2.3,0.3-4.6,0.6-6.2,3.1l-2.4,3.7l1.1,0.7
			c0,0,2.4-3.7,2.4-3.7c1.3-1.9,3.2-2.2,5.3-2.5c1.9-0.3,4-0.5,5.6-2.1c0.4-0.4,0.7-0.7,1.1-1.1c1.3-1.3,2.5-2.5,4.1-2.9
			c1.3-0.3,2.9,0,4.4,0.2c2.1,0.4,4.3,0.8,6.1-0.4c0.5-0.4,0.9-0.8,1.3-1.3c0.4-0.5,0.8-0.9,1.3-1.2c1.4-0.8,3,0,4.8,0.8
			c1.4,0.7,2.8,1.3,4.3,1.4c1.6,0,3-0.6,4.4-1.3c1.5-0.7,3-1.4,4.4-1c1,0.3,1.8,1,2.7,1.8c0.6,0.6,1.3,1.2,2.1,1.7
			c1.1,0.6,2.4,0.6,3.5,0.7c1.1,0,2.2,0,3.1,0.6c0.7,0.5,1.1,1.3,1.6,2.1c0.6,1.1,1.2,2.3,2.5,2.8c1,0.4,2.1,0.3,3,0.2l0.4,0
			c1.2-0.1,2,0,2.4,0.4c0.3,0.3,0.5,0.8,0.7,1.2c0.1,0.4,0.3,0.8,0.5,1.1c0.6,1.1,1.7,1.6,2.7,2.2c0.9,0.5,1.8,1,2.2,1.7
			c0.7,1.2,0.2,3-0.4,4.5c-0.7,1.9-1.3,3.9-0.2,5.6c0.4,0.6,0.9,1,1.3,1.4c0.4,0.4,0.8,0.7,1.1,1.1c0.4,0.6,0.5,1.6,0.2,2.5
			c-0.1,0.5-0.4,1-0.7,1.6c-0.8,1.4-1.7,3.1-0.6,4.7c0.5,0.8,1.3,1.4,2.1,1.9c0.2,0.2,0.5,0.3,0.7,0.5c1,0.8,2,1.6,2.9,2.6
			c2.8,2.8,5.1,6,6.8,9.6c2.1,4.4,3.3,8.2,2.3,12.2c-0.3,1.3-0.8,2.6-1.3,3.9c-1,2.7-2,5.5-1.9,8.4c0.1,3.6,2.2,6.7,4.2,9.8
			c0.7,1.1,1.4,2.1,1.9,3.1c1.5,2.7,1.7,5.4,0.5,6.9c-0.7,0.9-1.9,1.3-3.4,1.2c0.1-0.1,0.2-0.3,0.3-0.4c0.2-0.3,0.4-0.6,0.5-0.9
			c0.8-1.4,1-2.6,0.7-3.6c-0.2-0.8-0.7-1.5-1.5-2.1c-1.1-0.8-2.4-1.2-3.7-1c-1.3,0.2-2.5,0.9-3.3,2c-0.8,1.1-1,2.4-0.5,3.5
			c0.9,2.3,3.7,3,5.5,3.5c0,0,0.1,0,0.1,0c0,0,0,0,0,0.1c-0.5,1.4-0.2,2.9,0.7,3.7c0.8,0.7,1.9,0.9,3,1c1,0.1,1.9,0.2,2.4,0.8
			c0.4,0.4,0.6,0.9,0.5,1.3c-0.2,1.2-2.1,2.4-3.6,3.1c-0.3,0.1-0.7,0.3-1,0.4c-2.9-1.5-7-2.9-10.7-1.1c-0.7,0.3-1.1,1-1,1.7
			c0.1,0.6,0.5,1.1,1.2,1.4c2.7,1.3,7.2,0.5,10.4-0.6c0.5,0.3,0.9,0.5,1.3,0.8c1.1,0.7,1.8,1.9,1.8,3c0,1.1-0.7,2-1.8,2.7
			c-1.3,0.7-2.9,0.9-4.4,1.1c-0.4,0-0.6,0.4-0.6,0.7c0,0.3,0.3,0.6,0.6,0.6c0,0,0,0,0.1,0c1.6-0.2,3.4-0.4,4.9-1.2
			c1.5-0.9,2.4-2.2,2.4-3.8c0-1.6-0.8-3.1-2.4-4.1c-0.1-0.1-0.3-0.2-0.4-0.3c0,0,0.1,0,0.1-0.1c0.9-0.4,4-1.9,4.4-4
			C222.5,179.3,222.4,178.3,221.5,177.4z M215,171.5c-0.1,0-0.2,0-0.3-0.1c-1.6-0.4-4-1-4.7-2.7c-0.3-0.7-0.1-1.5,0.4-2.3
			c0.6-0.8,1.5-1.4,2.4-1.5c0.2,0,0.4,0,0.5,0c0.8,0,1.6,0.3,2.2,0.7c0.5,0.4,0.9,0.9,1,1.4c0.2,0.7,0,1.6-0.6,2.7
			c-0.2,0.3-0.3,0.6-0.5,0.8C215.3,170.8,215.1,171.2,215,171.5z M206.5,184c-0.3-0.1-0.4-0.3-0.5-0.4c0-0.1,0.1-0.3,0.3-0.4
			c1-0.5,2.1-0.7,3.2-0.7c1.8,0,3.6,0.6,5.1,1.2C211.8,184.5,208.4,184.9,206.5,184z"/>
		<path class="st3" d="M117,194.6c-4.7,0-8.4,2.3-12.4,5.9l-7-12.5l-10.1-18.6l0-0.1h-1.3v55.8h1.5v-52.7l16.6,30.3v22.5h1.5v-20.9
			c0-0.4,0-0.8,0-1.2v-1.8c4-3.6,7.6-5.4,11.3-5.4c5.2,0,7.7,2.7,7.7,8.3v20.9h1.5v-20.9C126.2,197.8,123.2,194.6,117,194.6z"/>
	</g>
</g>
</svg>
